<?xml version="1.0" encoding="utf-8"?>
<!-- Generator: Adobe Illustrator 22.0.0, SVG Export Plug-In . SVG Version: 6.00 Build 0)  -->
<svg version="1.1" id="Layer_1" xmlns="http://www.w3.org/2000/svg" xmlns:xlink="http://www.w3.org/1999/xlink" x="0px" y="0px"
	 viewBox="0 0 1200 404" style="enable-background:new 0 0 1200 404;" xml:space="preserve">
<style type="text/css">
	.st0{fill:#65C9FF;}
	.st1{fill:#3C4AB3;}
	.st2{fill:none;stroke:#000000;stroke-width:4;stroke-miterlimit:10;}
	.st3{fill:#3C4AB3;stroke:#3C4AB3;stroke-width:0.6232;stroke-miterlimit:10;}
	.st4{fill:none;stroke:#3C4AB3;stroke-width:3;stroke-miterlimit:10;}
	.st5{fill:none;stroke:#3C4AB3;stroke-width:5.8841;stroke-miterlimit:10;}
	.st6{fill:#FFFFFF;}
	.st7{fill:none;stroke:#FFFFFF;stroke-width:4;stroke-miterlimit:10;}
</style>
<title>Artboard 1</title>
<g>
	<path class="st0" d="M141.2,248.3c6,0.8,11.7-2.6,17.1-0.3V105.2h199.5v199.5H223.1c2.8,4.8,1.4,11.6,2.9,17.1l45,0h103.8V88.1
		H141.2V248.3z"/>
	<path class="st0" d="M620.7,163.4l0.4-66.8H482.2v212v0.1l5.3-5.3c2.2-2.2,5.2-3.5,8.4-3.5c3.2,0,6.1,1.2,8.4,3.5l7.7,7.7
		c0.6,0.6,1.2,1.3,1.6,2.1h7.8h177.4V163.3L620.7,163.4z"/>
	<g>
		<rect x="385.1" y="196.4" class="st0" width="431.4" height="17.1"/>
	</g>
	<g>
		<path class="st1" d="M376.6,257.3h-3.4V253h3.4V257.3z M376.6,248.8h-3.4v-4.3h3.4V248.8z M376.6,240.2h-3.4V236h3.4V240.2z
			 M376.6,231.7h-3.4v-4.3h3.4V231.7z M376.6,223.2h-3.4v-4.3h3.4V223.2z M376.6,214.6h-3.4v-4.3h3.4V214.6z M376.6,206.1h-3.4v-4.3
			h3.4V206.1z M376.6,197.6h-3.4v-4.3h3.4V197.6z M376.6,189.1h-3.4v-4.3h3.4V189.1z M376.6,180.5h-3.4v-4.3h3.4V180.5z M376.6,172
			h-3.4v-4.3h3.4V172z M376.6,163.5h-3.4v-4.3h3.4V163.5z"/>
	</g>
	<g>
		<g>
			<rect x="559.8" y="311.5" class="st1" width="20.5" height="3.4"/>
		</g>
		<g>
			<path class="st1" d="M668.4,314.9h-4.3v-3.4h4.3V314.9z M659.8,314.9h-4.3v-3.4h4.3V314.9z M651.3,314.9H647v-3.4h4.3V314.9z
				 M642.8,314.9h-4.3v-3.4h4.3V314.9z M634.2,314.9H630v-3.4h4.3V314.9z M625.7,314.9h-4.3v-3.4h4.3V314.9z"/>
		</g>
		<g>
			<polygon class="st1" points="701.4,314.9 668.4,314.9 668.4,311.5 698,311.5 698,255.9 701.4,255.9 			"/>
		</g>
		<g>
			<path class="st1" d="M701.4,252.7H698v-4.3h3.4V252.7z M701.4,244.2H698v-4.3h3.4V244.2z M701.4,235.7H698v-4.3h3.4V235.7z
				 M701.4,227.2H698v-4.3h3.4V227.2z M701.4,218.6H698v-4.3h3.4V218.6z M701.4,210.1H698v-4.3h3.4V210.1z M701.4,201.6H698v-4.3
				h3.4V201.6z M701.4,193H698v-4.3h3.4V193z M701.4,184.5H698v-4.3h3.4V184.5z M701.4,176H698v-4.3h3.4V176z"/>
		</g>
		<g>
			<path class="st1" d="M611.8,98.3h-4.3v-3.4h4.3V98.3z M603.3,98.3H599v-3.4h4.3V98.3z M594.7,98.3h-4.3v-3.4h4.3V98.3z
				 M586.2,98.3H582v-3.4h4.3V98.3z M577.7,98.3h-4.3v-3.4h4.3V98.3z M569.2,98.3h-4.3v-3.4h4.3V98.3z M560.6,98.3h-4.3v-3.4h4.3
				V98.3z M552.1,98.3h-4.3v-3.4h4.3V98.3z M543.6,98.3h-4.3v-3.4h4.3V98.3z M535.1,98.3h-4.3v-3.4h4.3V98.3z M526.5,98.3h-4.3v-3.4
				h4.3V98.3z"/>
		</g>
		<g>
			<polygon class="st1" points="484.9,138.8 481.4,138.8 481.4,94.9 522.3,94.9 522.3,98.3 484.9,98.3 			"/>
		</g>
		<g>
			<path class="st1" d="M484.9,227.4h-3.4v-4.3h3.4V227.4z M484.9,218.9h-3.4v-4.3h3.4V218.9z M484.9,210.4h-3.4v-4.3h3.4V210.4z
				 M484.9,201.9h-3.4v-4.3h3.4V201.9z M484.9,193.3h-3.4v-4.3h3.4V193.3z M484.9,184.8h-3.4v-4.3h3.4V184.8z"/>
		</g>
		<g>
			<rect x="481.4" y="237.1" class="st1" width="3.4" height="15.3"/>
		</g>
	</g>
	<path class="st1" d="M509.7,313.4C509.7,313.4,509.7,313.4,509.7,313.4c3.4,3.4,3.4,8.9,0,12.3l-18.5,18.5
		c-1.6,1.6-3.8,2.6-6.2,2.6c-2.3,0-4.5-0.9-6.2-2.6l-7.7-7.7c-3.4-3.4-3.4-8.9,0-12.3l10.8-10.8l0.2-0.2v-4.4l-0.8,0.8L468.9,322
		c-4.6,4.6-4.6,12.1,0,16.8l7.7,7.7c2.2,2.2,5.2,3.5,8.4,3.5c3.2,0,6.1-1.2,8.4-3.5l18.5-18.5c3.9-3.9,4.5-10,1.7-14.5
		c0-0.1-0.1-0.1-0.1-0.2h-4L509.7,313.4z"/>
	<path class="st1" d="M504.2,303.4c-2.2-2.2-5.2-3.5-8.4-3.5c-3.2,0-6.1,1.2-8.4,3.5l-5.3,5.3v4.4l7.5-7.5c1.6-1.6,3.8-2.6,6.2-2.6
		c2.3,0,4.5,0.9,6.2,2.6l2.7,2.7l1.1-1.1l2.2,2.2l-1.1,1.1l2.6,2.6h4c-0.5-0.7-1-1.4-1.6-2.1L504.2,303.4z"/>
	
		<rect x="505.6" y="307.4" transform="matrix(0.7071 -0.7071 0.7071 0.7071 -70.1327 448.5887)" class="st1" width="1.6" height="3.1"/>
	<path class="st1" d="M507,310.6l-2.2-2.2l-4.6,4.6c-0.4-0.1-0.8-0.2-1.2-0.2c-0.6,0-1.1,0.1-1.6,0.4c-0.3,0.2-0.6,0.4-0.9,0.6l-8,8
		c-1.4,1.4-1.4,3.7,0,5.1c0.7,0.7,1.6,1,2.5,1c1,0,1.9-0.4,2.5-1l8-8c1-1,1.3-2.4,0.8-3.7l2-2L507,310.6z M499.3,316.7l-8,8
		c-0.2,0.2-0.4,0.2-0.6,0c-0.2-0.2-0.2-0.5,0-0.6l8-8c0.1-0.1,0.2-0.1,0.3-0.1c0.1,0,0.2,0,0.3,0.1
		C499.5,316.2,499.5,316.5,499.3,316.7z"/>
	<path class="st1" d="M480.8,332.9c-0.5,0.5-0.5,1.2,0,1.7c0.5,0.5,1.2,0.5,1.7,0c0.5-0.5,0.5-1.2,0-1.7
		C482,332.4,481.2,332.4,480.8,332.9z"/>
	<g>
		<g>
			<rect x="608" y="340.6" class="st1" width="41.5" height="3.4"/>
		</g>
		<g>
			<rect x="557.1" y="340.6" class="st1" width="41.5" height="3.4"/>
		</g>
		<g>
			<g>
				<path class="st1" d="M654.1,348.6c-3.5,0-6.3-2.8-6.3-6.3c0-3.5,2.8-6.3,6.3-6.3c3.5,0,6.3,2.8,6.3,6.3
					C660.5,345.8,657.6,348.6,654.1,348.6z M654.1,339.3c-1.6,0-2.9,1.3-2.9,2.9c0,1.6,1.3,2.9,2.9,2.9c1.6,0,2.9-1.3,2.9-2.9
					C657.1,340.6,655.8,339.3,654.1,339.3z"/>
			</g>
			<g>
				<path class="st1" d="M552.5,348.6c-3.5,0-6.3-2.8-6.3-6.3c0-3.5,2.8-6.3,6.3-6.3c3.5,0,6.3,2.8,6.3,6.3
					C558.8,345.8,556,348.6,552.5,348.6z M552.5,339.3c-1.6,0-2.9,1.3-2.9,2.9c0,1.6,1.3,2.9,2.9,2.9c1.6,0,2.9-1.3,2.9-2.9
					C555.4,340.6,554.1,339.3,552.5,339.3z"/>
			</g>
		</g>
		<g>
			<path class="st1" d="M603.3,348.6c-3.5,0-6.3-2.8-6.3-6.3c0-3.5,2.8-6.3,6.3-6.3c3.5,0,6.3,2.8,6.3,6.3
				C609.7,345.8,606.8,348.6,603.3,348.6z M603.3,339.3c-1.6,0-2.9,1.3-2.9,2.9c0,1.6,1.3,2.9,2.9,2.9c1.6,0,2.9-1.3,2.9-2.9
				C606.3,340.6,604.9,339.3,603.3,339.3z"/>
		</g>
	</g>
	<g>
		<g>
			<path class="st1" d="M406.5,273.2l-6.2-42l31.9-4.7l6.2,42L406.5,273.2z M404.1,234.1l5.2,35.2l25.2-3.7l-5.2-35.2L404.1,234.1z"
				/>
		</g>
		<g>
			<g>
				
					<rect x="412" y="259.1" transform="matrix(0.9892 -0.1465 0.1465 0.9892 -33.6622 64.4636)" class="st1" width="17.8" height="3.4"/>
			</g>
			<g>
				
					<rect x="411.1" y="252.8" transform="matrix(0.9892 -0.1465 0.1465 0.9892 -32.7408 64.257)" class="st1" width="17.8" height="3.4"/>
			</g>
			<g>
				
					<rect x="410.1" y="246.4" transform="matrix(0.9892 -0.1465 0.1465 0.9892 -31.8193 64.0503)" class="st1" width="17.8" height="3.4"/>
			</g>
			<g>
				
					<rect x="409.2" y="240" transform="matrix(0.9892 -0.1465 0.1465 0.9892 -30.8994 63.8476)" class="st1" width="17.8" height="3.4"/>
			</g>
		</g>
	</g>
	
		<rect x="823.5" y="342.5" transform="matrix(0.9959 -9.054025e-02 9.054025e-02 0.9959 -28.2201 76.1472)" class="st1" width="3.4" height="13.3"/>
	<g>
		<g>
			<path class="st1" d="M501.9,82.8c-8.9,0-16.1-7.2-16.1-16.1c0-8.9,7.2-16.1,16.1-16.1S518,57.7,518,66.6
				C518,75.5,510.7,82.8,501.9,82.8z M501.9,53.9c-7,0-12.7,5.7-12.7,12.7c0,7,5.7,12.7,12.7,12.7c7,0,12.7-5.7,12.7-12.7
				C514.6,59.6,508.9,53.9,501.9,53.9z"/>
		</g>
		<g>
			<polygon class="st1" points="502.1,75.5 495.5,63.2 498.5,61.6 502.1,68.3 512.8,48.4 515.8,50 			"/>
		</g>
	</g>
	<g>
		<rect x="125" y="110" class="st0" width="6" height="10"/>
		<rect x="125" y="90" class="st0" width="6" height="10"/>
		<rect x="125" y="130" class="st0" width="6" height="10"/>
		<rect x="125" y="229.9" class="st0" width="6" height="10"/>
		<rect x="125" y="189.9" class="st0" width="6" height="10"/>
		<rect x="125" y="209.9" class="st0" width="6" height="10"/>
		<rect x="125" y="150" class="st0" width="6" height="10"/>
		<rect x="125" y="169.9" class="st0" width="6" height="10"/>
		<polygon class="st0" points="131,77.9 133.1,77.9 133.1,71.9 125,71.9 125,80 131,80 		"/>
		<rect x="243.1" y="71.9" class="st0" width="10" height="6"/>
		<rect x="263" y="71.9" class="st0" width="10" height="6"/>
		<rect x="283" y="71.9" class="st0" width="10" height="6"/>
		<rect x="223.1" y="71.9" class="st0" width="10" height="6"/>
		<rect x="183.1" y="71.9" class="st0" width="10" height="6"/>
		<rect x="203.1" y="71.9" class="st0" width="10" height="6"/>
		<rect x="363" y="71.9" class="st0" width="10" height="6"/>
		<rect x="303" y="71.9" class="st0" width="10" height="6"/>
		<rect x="143.1" y="71.9" class="st0" width="10" height="6"/>
		<rect x="163.1" y="71.9" class="st0" width="10" height="6"/>
		<rect x="323" y="71.9" class="st0" width="10" height="6"/>
		<rect x="343" y="71.9" class="st0" width="10" height="6"/>
		<polygon class="st0" points="383,71.9 383,77.9 385.1,77.9 385.1,80 391.1,80 391.1,71.9 		"/>
		<rect x="385.1" y="269.9" class="st0" width="6" height="10"/>
		<rect x="385.1" y="130" class="st0" width="6" height="10"/>
		<rect x="385.1" y="150" class="st0" width="6" height="10"/>
		<rect x="385.1" y="169.9" class="st0" width="6" height="10"/>
		<rect x="385.1" y="90" class="st0" width="6" height="10"/>
		<rect x="385.1" y="189.9" class="st0" width="6" height="10"/>
		<rect x="385.1" y="110" class="st0" width="6" height="10"/>
		<rect x="385.1" y="209.9" class="st0" width="6" height="10"/>
		<rect x="385.1" y="309.9" class="st0" width="6" height="10"/>
		<rect x="385.1" y="249.9" class="st0" width="6" height="10"/>
		<rect x="385.1" y="289.9" class="st0" width="6" height="10"/>
		<rect x="385.1" y="229.9" class="st0" width="6" height="10"/>
		<polygon class="st0" points="385.1,332 383,332 383,337.9 391.1,337.9 391.1,329.8 385.1,329.8 		"/>
		<rect x="283" y="332" class="st0" width="10" height="6"/>
		<rect x="323" y="332" class="st0" width="10" height="6"/>
		<rect x="343" y="332" class="st0" width="10" height="6"/>
		<rect x="303" y="332" class="st0" width="10" height="6"/>
		<rect x="363" y="332" class="st0" width="10" height="6"/>
		<rect x="226" y="332" class="st0" width="7" height="6"/>
		<rect x="263" y="332" class="st0" width="10" height="6"/>
		<rect x="243.1" y="332" class="st0" width="10" height="6"/>
	</g>
	<polygon class="st1" points="238.2,323.4 241.1,323.4 315.5,323.4 315.5,321.7 315.5,320 240.2,320 238.2,320 	"/>
	<g>
		<polygon class="st1" points="223,267.5 227.1,267.5 227.1,246.7 206.3,246.7 206.3,250.8 223,250.8 		"/>
		<polygon class="st1" points="74.7,382.4 70.6,382.4 70.6,403.2 91.4,403.2 91.4,399.1 74.7,399.1 		"/>
		<path class="st1" d="M226,307L226,307c-0.4-1.4-0.7-2.7-1.1-4.1h0c-0.4-1.3-0.8-2.6-1.2-3.8c0,0,0,0,0,0h0c-1.8-5.1-4-10-6.8-14.6
			c-8.5-14.4-21.5-25.8-37-32.5c-6.4-2.8-13.3-4.7-20.5-5.7c-3.5-0.5-7.1-0.7-10.7-0.7c-35,0-64.8,22.9-75.3,54.5H32.1V341h39
			c7.4,36.1,39.4,63.3,77.7,63.3c43.7,0,79.3-35.6,79.3-79.3C228.1,318.8,227.4,312.8,226,307z M36.2,304.2h44.7h2.8v6.1v12.9l5.5,4
			l-5.5,4v5.6h-0.5h-4.2H36.2V304.2z M94,376.4l2-7.4c1.6-5.7,6.8-9.7,12.7-9.7c0,0,0,0,0,0l3.5,0l27.8,27.8l-0.6,12.4l-0.1,2.2l0,0
			l0.1-2.2C121.6,397.3,105.7,388.9,94,376.4z M155.1,372.8c4.3-2.6,7.8-7.3,9.7-13.4l11.9,0l-21.2,21.2L155.1,372.8z M147.7,370.8
			c-5.4,0-10.4-4.5-12.8-11.5l25.7,0C158,366.3,153.1,370.8,147.7,370.8z M130.5,359.3c1.9,6.4,5.7,11.3,10.2,13.8l-0.4,8.5
			l-22.3-22.3L130.5,359.3z M148.8,400.2c-1.8,0-3.5-0.1-5.3-0.2l1.3-25.3c0.9,0.2,1.9,0.3,2.9,0.3c1.2,0,2.3-0.2,3.4-0.4l1.3,25.6
			C151.2,400.1,150,400.2,148.8,400.2z M156.6,401.9l-0.1-2.1l-0.7-13.7l26.7-26.7l6.3,0c5.9,0,11.1,4,12.7,9.7l2,7.4
			c-12.1,12.8-28.6,21.4-47.1,23.3L156.6,401.9z M206.8,372.8l-1.3-4.8c-2.1-7.5-8.9-12.7-16.7-12.7l-80.1-0.1c0,0,0,0,0,0
			c-7.7,0-14.6,5.2-16.6,12.7l-1.3,4.8l-1,3.7l0,0l1-3.7c-7.5-9-12.8-19.9-15.4-31.7h4.4H84h3.8v-7.6l8.4-6.1l-8.4-6.1v-21h-1.3
			h-4.3h-4.3c10.3-29.3,38.2-50.4,71-50.4c3.6,0,7.2,0.3,10.7,0.8c7.2,1,14.1,3.1,20.5,6c13.2,6.1,24.4,15.8,32.2,28
			c2.9,4.5,5.3,9.4,7.2,14.6h0c3,8.1,4.6,16.8,4.6,25.9c0,3.6-0.3,7.2-0.8,10.7h0.1C221.2,349.7,215.4,362.4,206.8,372.8l1,3.7
			L206.8,372.8z"/>
		<path class="st1" d="M147.5,266.9c-18.3,0-31.2,15.1-31.2,36.7c0,0.3,0,0.6,0,1h-2.8v16.1h5.4c5.1,16.8,16.5,28,28.6,28
			c18.4,0,31.2-23.7,31.2-45C178.7,281.9,165.9,266.9,147.5,266.9z M147.5,270.9c15.4,0,26.3,12.5,27,30.7
			c-6.1-5.7-9.7-13.7-12.6-21.7l-1.1-2.9l-2.2,2.1c-11,10.2-23.4,16-37.7,17.7C123.2,281.3,133.5,270.9,147.5,270.9z M120.5,303.5
			c0-0.8,0-1.7,0.1-2.5c14.6-1.5,27.2-7.1,38.6-16.9c3.3,8.3,7.5,16.5,14.6,22.2l-3.2-1.3l-6.6,2.8v-3.3h-21.4v4.8h-7.5v-4.8h-14.5
			C120.5,304.2,120.5,303.9,120.5,303.5z M159.8,308.6v7.9h-13.2v-7.9H159.8z M117.7,308.6H131v7.9h-13.2V308.6z M147.5,344.5
			c-9.8,0-19.6-9.7-24.3-23.9h11.8v-7.2h7.5v7.2h21.4v-8.3l6.6-2.8l3.6,1.5C171.6,329.3,160.1,344.5,147.5,344.5z"/>
		<rect x="178.5" y="342.7" class="st1" width="4.8" height="4.1"/>
		<rect x="195.6" y="342.7" class="st1" width="4.8" height="4.1"/>
		<path class="st1" d="M46.8,315.9c-2.8,0-5.1,2.3-5.1,5.1c0,2.8,2.3,5.1,5.1,5.1c2.8,0,5.1-2.3,5.1-5.1
			C51.9,318.2,49.6,315.9,46.8,315.9z M46.8,322.1c-0.6,0-1-0.5-1-1c0-0.6,0.5-1,1-1s1,0.5,1,1C47.8,321.6,47.4,322.1,46.8,322.1z"
			/>
		<path class="st1" d="M59.8,315.9c-2.8,0-5.1,2.3-5.1,5.1c0,2.8,2.3,5.1,5.1,5.1s5.1-2.3,5.1-5.1C64.9,318.2,62.6,315.9,59.8,315.9
			z M59.8,322.1c-0.6,0-1-0.5-1-1c0-0.6,0.5-1,1-1c0.6,0,1,0.5,1,1C60.8,321.6,60.4,322.1,59.8,322.1z"/>
		<path class="st1" d="M72.8,315.9c-2.8,0-5.1,2.3-5.1,5.1c0,2.8,2.3,5.1,5.1,5.1c2.8,0,5.1-2.3,5.1-5.1
			C77.9,318.2,75.6,315.9,72.8,315.9z M72.8,322.1c-0.6,0-1-0.5-1-1c0-0.6,0.5-1,1-1c0.6,0,1,0.5,1,1
			C73.8,321.6,73.4,322.1,72.8,322.1z"/>
	</g>
	<g>
		<path class="st1" d="M787.4,185.9h-4.3v-3.4h4.3V185.9z M778.9,185.9h-4.3v-3.4h4.3V185.9z M770.4,185.9h-4.3v-3.4h4.3V185.9z
			 M761.9,185.9h-4.3v-3.4h4.3V185.9z"/>
	</g>
	<g>
		<polygon class="st1" points="757.6,185.9 713.3,185.9 713.3,171.7 716.7,171.7 716.7,182.5 757.6,182.5 		"/>
	</g>
	<g>
		<rect x="556.4" y="79.1" class="st1" width="39.8" height="3.4"/>
	</g>
	<g>
		<polygon class="st1" points="749.6,250.3 746.2,250.3 746.2,228 721.2,228 721.2,224.6 749.6,224.6 		"/>
	</g>
	<g>
		<path class="st1" d="M719.2,228H715v-3.4h4.3V228z M710.7,228h-4.3v-3.4h4.3V228z"/>
	</g>
	<g>
		<rect x="426.8" y="183.7" class="st1" width="10.8" height="3.4"/>
	</g>
	<g>
		<polygon class="st1" points="418,187.1 400.6,187.1 400.6,152.1 404,152.1 404,183.7 418,183.7 		"/>
	</g>
	<g>
		<path class="st1" d="M404,147.7h-3.4v-4.3h3.4V147.7z M404,139.1h-3.4v-4.3h3.4V139.1z M404,130.6h-3.4v-4.3h3.4V130.6z"/>
	</g>
	<path class="st1" d="M107.2,203.7h-4.3v-3.4h4.3V203.7z M98.7,203.7h-4.3v-3.4h4.3V203.7z M90.1,203.7h-4.3v-3.4h4.3V203.7z
		 M81.6,203.7h-4.3v-3.4h4.3V203.7z M73.1,203.7h-4.3v-3.4h4.3V203.7z"/>
	<g>
		<rect x="17.9" y="200.3" class="st1" width="50.9" height="3.4"/>
	</g>
	<g>
		<path class="st1" d="M9.8,211.6c-5.4,0-9.8-4.4-9.8-9.8s4.4-9.8,9.8-9.8s9.8,4.4,9.8,9.8S15.2,211.6,9.8,211.6z M9.8,195.4
			c-3.5,0-6.4,2.9-6.4,6.4c0,3.5,2.9,6.4,6.4,6.4s6.4-2.9,6.4-6.4C16.2,198.3,13.3,195.4,9.8,195.4z"/>
	</g>
	<g>
		<rect x="1056.7" y="41.3" class="st1" width="45.8" height="3.4"/>
	</g>
	<g>
		<path class="st1" d="M1088.3,120.6h-3.4v-4.3h3.4V120.6z M1088.3,112h-3.4v-4.3h3.4V112z M1088.3,103.5h-3.4v-4.3h3.4V103.5z"/>
	</g>
	<g>
		<polygon class="st1" points="1088.3,99.3 1084.9,99.3 1084.9,80.5 1100.2,80.5 1100.2,83.9 1088.3,83.9 		"/>
	</g>
	<g>
		<g>
			<rect x="1116" y="63.4" class="st1" width="3.4" height="2.1"/>
		</g>
		<g>
			<rect x="1116" y="70.4" class="st1" width="3.4" height="4.8"/>
		</g>
		<g>
			<polygon class="st1" points="1119.4,83.9 1115.6,83.9 1115.6,80.5 1116,80.5 1116,80.1 1119.4,80.1 			"/>
		</g>
		<g>
			<rect x="1106.7" y="80.5" class="st1" width="4.4" height="3.4"/>
		</g>
		<g>
			<rect x="1100.2" y="80.5" class="st1" width="2.1" height="3.4"/>
		</g>
	</g>
	<g>
		<polygon class="st1" points="1119.4,63.4 1116,63.4 1116,44.7 1101.2,44.7 1101.2,41.3 1119.4,41.3 		"/>
	</g>
	<g>
		<g>
			<rect x="310.3" y="281.8" class="st1" width="5.2" height="3.4"/>
		</g>
		<g>
			<rect x="291.1" y="281.8" class="st1" width="5.2" height="3.4"/>
		</g>
		<g>
			<rect x="329.4" y="281.8" class="st1" width="5.2" height="3.4"/>
		</g>
	</g>
	<g>
		<g>
			<rect x="814.8" y="43.1" class="st1" width="3.4" height="16.7"/>
		</g>
		<g>
			<rect x="808.2" y="49.8" class="st1" width="16.7" height="3.4"/>
		</g>
	</g>
	<g>
		<path class="st1" d="M869.8,361.1c-4,0-7.3-3.3-7.3-7.3c0-4,3.3-7.3,7.3-7.3c4,0,7.3,3.3,7.3,7.3
			C877.1,357.8,873.8,361.1,869.8,361.1z M869.8,349.8c-2.2,0-3.9,1.8-3.9,3.9c0,2.2,1.8,3.9,3.9,3.9s3.9-1.8,3.9-3.9
			C873.7,351.6,871.9,349.8,869.8,349.8z"/>
	</g>
	<g>
		<path class="st1" d="M104,127.8l-1.4-2.3c-0.9-1.5-2-2.8-3.2-4c-1.2-1.2-2.6-2.3-4-3.2l-2.3-1.4l2.3-1.4c1.5-0.9,2.8-2,4-3.2
			c1.2-1.2,2.3-2.6,3.2-4l1.4-2.3l1.4,2.3c0.9,1.5,2,2.8,3.2,4c1.2,1.2,2.6,2.3,4,3.2l2.3,1.4l-2.3,1.4c-1.5,0.9-2.8,2-4,3.2
			c-1.2,1.2-2.3,2.6-3.2,4L104,127.8z M99.2,116.8c0.9,0.7,1.8,1.4,2.6,2.3c0.8,0.8,1.6,1.7,2.2,2.6c0.7-0.9,1.4-1.8,2.3-2.6
			c0.8-0.8,1.7-1.6,2.6-2.3c-0.9-0.7-1.8-1.4-2.6-2.3c-0.8-0.8-1.6-1.7-2.3-2.6c-0.7,0.9-1.4,1.8-2.2,2.6
			C100.9,115.4,100.1,116.1,99.2,116.8z"/>
	</g>
	<g>
		<path class="st1" d="M552.5,285.8c-2.3,0-4.4-1.4-6.3-2.6c-1.8-1.1-3.4-2.2-4.5-1.8c-0.9,0.4-1.7,1-2.6,1.7
			c-1,0.8-2.1,1.6-3.4,2.1c-2.2,0.9-5,0.3-7.7-1.7l-0.1-0.1c-1.7-1.2-3.4-2.5-4.7-2.3c-1,0.2-2.2,1-3.4,1.9c-0.6,0.5-1.3,1-2,1.4
			c-2.4,1.5-5.4,1.5-7.8,0c-0.7-0.4-1.3-0.9-2-1.4c-1.2-0.9-2.3-1.8-3.4-1.9c-1.3-0.2-3.1,0.9-4.7,2c-2.3,1.5-4.9,3.2-7.7,2
			c-1.3-0.5-2.3-1.3-3.4-2.1c-0.9-0.7-1.8-1.3-2.6-1.7c-1.5-0.6-3.6,0.7-4.4,1.3l-0.1,0.1c-2.1,1.6-4.6,3.4-7.2,3
			c-1.9-0.3-3.4-1.4-4.9-2.5c-0.6-0.5-1.2-0.9-1.8-1.3l1.8-2.9c0.7,0.4,1.4,0.9,2,1.4c1.2,0.9,2.3,1.7,3.4,1.9
			c1.3,0.2,3-1.1,4.7-2.3l0.1-0.1c2.7-2,5.5-2.6,7.7-1.7c1.3,0.5,2.4,1.3,3.4,2.1c0.9,0.7,1.8,1.3,2.6,1.7c1.1,0.5,2.8-0.6,4.5-1.8
			c2.1-1.4,4.5-2.9,7.1-2.5c1.9,0.3,3.4,1.4,4.9,2.5c0.6,0.4,1.2,0.9,1.7,1.2c1.3,0.8,2.9,0.8,4.2,0c0.6-0.4,1.2-0.8,1.8-1.3
			c1.5-1.1,3-2.3,4.9-2.5c2.7-0.4,5.1,1.4,7.2,3l0.1,0.1c0.8,0.6,2.8,1.9,4.4,1.3c0.9-0.4,1.7-1,2.6-1.7c1-0.8,2.1-1.6,3.4-2.1
			c2.8-1.2,5.4,0.5,7.7,2c1.7,1.1,3.4,2.2,4.7,2c1-0.1,2.2-1,3.4-1.9c0.6-0.5,1.3-1,2-1.4c2.4-1.5,5.4-1.5,7.8,0l-1.8,2.9
			c-1.3-0.8-2.9-0.8-4.2,0c-0.6,0.4-1.1,0.8-1.7,1.2c-1.5,1.1-3,2.3-4.9,2.5C553,285.8,552.8,285.8,552.5,285.8z"/>
	</g>
	<g>
		<line class="st2" x1="235.4" y1="226.3" x2="280.6" y2="226.3"/>
		<g>
			<path d="M249.6,185.6c7.7,0,13.6,5.6,13.6,14.9s-5.8,14.9-13.5,14.9c-7.7,0-13.6-5.6-13.6-14.9S241.9,185.6,249.6,185.6z
				 M249.7,210.2c4.4,0,7.3-3.8,7.3-9.7s-2.9-9.7-7.4-9.7c-4.4,0-7.3,3.8-7.3,9.7S245.2,210.2,249.7,210.2z"/>
			<path d="M271.8,214.9v-22.8l-4.7,1.9l-2-4.4l8.3-3.5h4.7v28.8H271.8z"/>
		</g>
	</g>
	<g>
		<line class="st2" x1="902.2" y1="226.3" x2="956" y2="226.3"/>
		<g>
			<path d="M916.5,185.6c7.7,0,13.6,5.6,13.6,14.9s-5.8,14.9-13.5,14.9c-7.7,0-13.6-5.6-13.6-14.9S908.8,185.6,916.5,185.6z
				 M916.5,210.2c4.4,0,7.3-3.8,7.3-9.7s-2.9-9.7-7.4-9.7c-4.4,0-7.3,3.8-7.3,9.7S912.1,210.2,916.5,210.2z"/>
			<path d="M934.8,208.5c2.3,1.2,4.9,2,7.5,2c4,0,6.6-1.6,6.6-4.4c0-2.8-2.4-3.7-5.8-3.7H939v-4.6h4c3.2,0,5-1.1,5-3.8
				c0-2-1.8-3.6-5.1-3.6c-2.5,0-4.9,1.1-7.1,2.6l-2.8-4c3-2,6.2-3.4,10.4-3.4c6.4,0,10.8,3.1,10.8,7.9c0,3.1-1.6,5-4.2,6.2
				c3.5,1.4,5.1,3.6,5.1,6.9c0,5.9-5.9,8.9-12.7,8.9c-3.5,0-6.9-0.9-9.9-2.4L934.8,208.5z"/>
		</g>
	</g>
	<g>
		<g>
			<path class="st1" d="M85.7,33.7c-2.5,0-5.2-1.2-7.2-3.2c-1.6-1.6-2.4-3.4-2.6-5.3c-0.1-1.9,0.5-3.6,1.9-5
				c1.2-1.2,2.8-1.9,4.6-1.9c2,0,4,0.9,5.7,2.6c2.6,2.6,3.8,6.3,3,9.1c-0.2,0.8-0.7,1.5-1.3,2.1c-0.6,0.6-1.3,1-2.1,1.3
				C87,33.6,86.4,33.7,85.7,33.7z M82.3,21.7c-0.8,0-1.6,0.3-2.1,0.9c-0.6,0.6-0.9,1.4-0.9,2.3c0.1,1,0.6,2.1,1.6,3.1
				c1.3,1.3,3.3,2.2,4.8,2.2c0.3,0,0.6,0,0.9-0.1c0.3-0.1,0.5-0.2,0.7-0.4c0.2-0.2,0.3-0.4,0.4-0.7c0.4-1.4-0.3-3.9-2.1-5.7
				C84.6,22.3,83.4,21.7,82.3,21.7z"/>
		</g>
		<g>
			<path class="st1" d="M93.7,53.3l-1.2-0.9c-1-0.7-5-4.7-5.5-5.2c-6.5-6.5-4.3-11.9-1.3-16.4l2.8,1.9c-2.8,4.3-3.6,7.6,0.9,12.1
				c0.7,0.7,2.7,2.6,4,3.9l12.8-12.8c-1.2-1.3-3.1-3.3-3.9-4c-4.5-4.5-7.8-3.7-12.1-0.9l-1.9-2.8c4.5-3,9.9-5.1,16.4,1.3
				c0.4,0.4,4.4,4.5,5.2,5.5l0.9,1.2L93.7,53.3z"/>
		</g>
		<g>
			
				<rect x="106.5" y="40.6" transform="matrix(0.7069 -0.7073 0.7073 0.7069 -4.112 91.3696)" class="st1" width="3.4" height="20.2"/>
		</g>
	</g>
	<g>
		<g>
			<path class="st1" d="M433.8,383.9c-2,0-4-0.9-5.7-2.6c-2.6-2.6-3.8-6.3-3-9.1c0.2-0.8,0.7-1.5,1.3-2.1c0.6-0.6,1.3-1,2.1-1.3
				c0.6-0.2,1.2-0.3,1.9-0.3c2.5,0,5.3,1.2,7.2,3.2c3.2,3.2,3.4,7.5,0.7,10.2C437.1,383.2,435.5,383.9,433.8,383.9z M430.4,372
				c-0.3,0-0.6,0-0.9,0.1c-0.3,0.1-0.5,0.2-0.7,0.4s-0.3,0.4-0.4,0.7c-0.4,1.4,0.3,3.9,2.1,5.7c1.8,1.8,4,2,5.4,0.7
				c1.4-1.4,1.1-3.6-0.7-5.4C433.9,372.9,432,372,430.4,372z"/>
		</g>
		<g>
			<path class="st1" d="M419.9,377c-2.6,0-5.5-1.1-8.6-4.2c-0.1-0.1-4.4-4.5-5.2-5.5l-0.9-1.2l17.1-17.1l1.2,0.9
				c1,0.8,5.1,4.7,5.5,5.2c6.5,6.5,4.3,11.9,1.3,16.4l-2.8-1.9c2.8-4.3,3.6-7.6-0.9-12.1c-0.7-0.7-2.7-2.7-4-3.9l-12.8,12.8
				c1.2,1.3,3,3.2,3.9,4.1c4.5,4.5,7.8,3.7,12.1,0.9l1.9,2.8C425.4,375.7,422.8,377,419.9,377z"/>
		</g>
		<g>
			
				<rect x="406.2" y="341.5" transform="matrix(0.7071 -0.7071 0.7071 0.7071 -129.1379 391.4417)" class="st1" width="3.4" height="20.2"/>
		</g>
	</g>
	<g>
		<g>
			<path class="st1" d="M430.4,33.7c-0.7,0-1.3-0.1-1.9-0.3c-0.8-0.2-1.5-0.7-2.1-1.3c-0.6-0.6-1-1.3-1.3-2.1
				c-0.8-2.8,0.4-6.5,3-9.1c1.7-1.7,3.7-2.6,5.7-2.6c1.7,0,3.3,0.7,4.6,1.9c2.8,2.8,2.5,7.1-0.7,10.2
				C435.7,32.5,432.9,33.7,430.4,33.7z M433.8,21.7c-1.1,0-2.3,0.6-3.3,1.6c-1.8,1.8-2.5,4.4-2.1,5.7c0.1,0.3,0.2,0.5,0.4,0.7
				c0.2,0.2,0.4,0.3,0.7,0.4c1.6,0.5,4.1-0.5,5.7-2.1c1.8-1.8,2.1-4,0.7-5.4C435.4,22.1,434.6,21.7,433.8,21.7z"/>
		</g>
		<g>
			<path class="st1" d="M422.4,53.3l-17.1-17.1l0.9-1.2c0.8-1.1,5.1-5.5,5.2-5.5c6.5-6.5,11.9-4.3,16.4-1.3l-1.9,2.8
				c-4.3-2.8-7.6-3.6-12.1,0.9c-0.9,0.9-2.7,2.8-3.9,4l12.8,12.8c1.3-1.2,3.3-3.1,4-3.9c4.5-4.5,3.7-7.8,0.9-12.1l2.8-1.9
				c3,4.5,5.1,10-1.3,16.4c-0.5,0.5-4.5,4.4-5.5,5.2L422.4,53.3z"/>
		</g>
		<g>
			
				<rect x="397.9" y="48.9" transform="matrix(0.7071 -0.7071 0.7071 0.7071 83.6851 303.3105)" class="st1" width="20.2" height="3.4"/>
		</g>
	</g>
	<g>
		<g>
			<path class="st1" d="M258.1,47.3c-4.8,0-8.6-3.9-8.6-8.6c0-4.8,3.9-8.6,8.6-8.6c4.8,0,8.6,3.9,8.6,8.6
				C266.7,43.4,262.8,47.3,258.1,47.3z M258.1,33.4c-2.9,0-5.2,2.3-5.2,5.2c0,2.9,2.3,5.2,5.2,5.2c2.9,0,5.2-2.3,5.2-5.2
				C263.3,35.8,260.9,33.4,258.1,33.4z"/>
		</g>
		<g>
			<rect x="256.3" y="45.6" class="st1" width="3.4" height="14"/>
		</g>
	</g>
	<g>
		<g>
			<path class="st1" d="M258.1,385.3c-4.8,0-8.6-3.9-8.6-8.6c0-4.8,3.9-8.6,8.6-8.6c4.8,0,8.6,3.9,8.6,8.6
				C266.7,381.4,262.8,385.3,258.1,385.3z M258.1,371.4c-2.9,0-5.2,2.3-5.2,5.2s2.3,5.2,5.2,5.2c2.9,0,5.2-2.3,5.2-5.2
				S260.9,371.4,258.1,371.4z"/>
		</g>
		<g>
			<rect x="256.3" y="355.7" class="st1" width="3.4" height="14"/>
		</g>
	</g>
	<g>
		<g>
			<polygon class="st1" points="142.9,157.5 139.5,157.5 139.5,86.4 285.8,86.4 285.8,89.8 142.9,89.8 			"/>
		</g>
		<g>
			<polygon class="st1" points="160,134.8 156.6,134.8 156.6,103.5 182.3,103.5 182.3,106.9 160,106.9 			"/>
		</g>
		<g>
			<path class="st1" d="M239.8,106.9h-4.3v-3.4h4.3V106.9z M231.2,106.9H227v-3.4h4.3V106.9z M222.7,106.9h-4.3v-3.4h4.3V106.9z
				 M214.2,106.9h-4.3v-3.4h4.3V106.9z M205.7,106.9h-4.3v-3.4h4.3V106.9z M197.1,106.9h-4.3v-3.4h4.3V106.9z M188.6,106.9h-4.3
				v-3.4h4.3V106.9z"/>
		</g>
	</g>
	<g>
		<path class="st3" d="M1026.7,20.2h-15.2v11.4h15.2V20.2z M1024.6,29.5h-11v-7.3h11V29.5z"/>
		<path class="st3" d="M998.8,45.2h27.9V33.8h-27.9V45.2z M1000.9,35.8h23.7v7.3h-23.7V35.8z"/>
		<path class="st3" d="M995.6,33.8h-21.7v11.4h21.7V33.8z M993.5,43.1H976v-7.3h17.5V43.1z"/>
		<path class="st3" d="M1008.2,20.2h-34.2v11.4h34.2V20.2z M1006.1,29.5h-30v-7.3h30V29.5z"/>
		<rect x="975" y="47.9" class="st3" width="31.4" height="2.1"/>
		<rect x="996.6" y="52.5" class="st3" width="5.3" height="2.1"/>
		<rect x="975" y="52.5" class="st3" width="18.8" height="2.1"/>
		<rect x="1009.1" y="47.9" class="st3" width="3.3" height="2.1"/>
		<rect x="1014.8" y="47.9" class="st3" width="10.8" height="2.1"/>
		<rect x="1004.9" y="52.5" class="st3" width="20.7" height="2.1"/>
		<path class="st3" d="M968.1,0v7.3v5.3v4.3v42.9h79.8V16.9V0H968.1z M1045.8,57.8h-75.6V16.9h75.6V57.8z M1045.8,14.8h-75.6v-2.2
			V7.3V2.1h75.6V14.8z"/>
		<path class="st3" d="M1024.9,12.4c2.2,0,4-1.8,4-4s-1.8-4-4-4s-4,1.8-4,4S1022.7,12.4,1024.9,12.4z M1024.9,6.5
			c1.1,0,1.9,0.9,1.9,1.9c0,1.1-0.9,1.9-1.9,1.9c-1.1,0-1.9-0.9-1.9-1.9C1023,7.3,1023.9,6.5,1024.9,6.5z"/>
		<path class="st3" d="M1037.1,12.4c2.2,0,4-1.8,4-4s-1.8-4-4-4c-2.2,0-4,1.8-4,4S1034.9,12.4,1037.1,12.4z M1037.1,6.5
			c1.1,0,1.9,0.9,1.9,1.9c0,1.1-0.9,1.9-1.9,1.9c-1.1,0-1.9-0.9-1.9-1.9C1035.2,7.3,1036.1,6.5,1037.1,6.5z"/>
		<path class="st3" d="M1012.8,12.4c2.2,0,4-1.8,4-4s-1.8-4-4-4c-2.2,0-4,1.8-4,4S1010.6,12.4,1012.8,12.4z M1012.8,6.5
			c1.1,0,1.9,0.9,1.9,1.9c0,1.1-0.9,1.9-1.9,1.9c-1.1,0-1.9-0.9-1.9-1.9C1010.8,7.3,1011.7,6.5,1012.8,6.5z"/>
		<path class="st3" d="M1042.8,20.2h-13.2v34.4h13.2V20.2z M1040.7,52.5h-9V22.3h9V52.5z"/>
	</g>
	<g>
		<g>
			<path class="st1" d="M1098.6,145.7H1077v-18.8h21.6V145.7z M1080.3,142.3h15v-12.2h-15V142.3z"/>
		</g>
		<g>
			<path class="st1" d="M1078.7,144h-8.7c-2.4,0-4.3-1.9-4.3-4.3v-6.9c0-2.4,1.9-4.3,4.3-4.3h8.7v3.3h-8.7c-0.5,0-1,0.4-1,1v6.9
				c0,0.5,0.4,1,1,1h8.7V144z"/>
		</g>
		<g>
			<rect x="1097" y="128.5" class="st1" width="30.2" height="3.3"/>
		</g>
		<g>
			<rect x="1097" y="140.7" class="st1" width="30.2" height="3.3"/>
		</g>
		<g>
			<path class="st1" d="M1125.5,144.3v-16.1l23.5,8L1125.5,144.3z M1128.8,132.8v6.8l10-3.4L1128.8,132.8z"/>
		</g>
		<g>
			<rect x="1097" y="134.6" class="st1" width="30.2" height="3.3"/>
		</g>
	</g>
	<path class="st0" d="M947.6,337.4l1.7-0.6c-0.7-5.3-0.4-10.8,0.9-16.1l-7.3-3.5l1.9-4H816.5V96.6h216.6v129.6
		c2.3-0.3,4.6-0.5,7-0.5c3.2,0,6.4,0.3,9.4,0.9l-2.2-2.2l7.3-7.3l2.4-2.4l1.6,1.5V96.6V71.1h-25.6H816.5H791v25.6v216.6v25.6h25.6
		h0.1l-0.2-2.4H813l1.4-10.7h27.7l1.4,10.7h-3.4l-0.2,2.4h103.6L947.6,337.4L947.6,337.4z M1037.2,192.3h3.8v18.9h-3.8V192.3z"/>
	<path class="st1" d="M842.2,325.6h-27.7l-1.4,10.7h3.4l0.2,2.4l2.8,28.3h17.7l2.8-28.3l0.2-2.4h3.4L842.2,325.6z M817.4,329h21.8
		l0.5,3.9h-22.8L817.4,329z M836.6,338.8l-2.5,24.9h-11.5l-2.5-24.9l-0.2-2.4h17L836.6,338.8z"/>
	<g>
		<path class="st1" d="M778.6,162.2c-0.2,0-0.5,0-0.7-0.1c-1.8-0.3-3.3-1.4-4.7-2.4l2-2.8l0.1,0c1.1,0.8,2.2,1.6,3.1,1.8
			c1.1,0.2,2.8-1,4.3-2.2l0.1-0.1c2.6-1.9,5.2-2.5,7.3-1.6c1.2,0.5,2.2,1.3,3.2,2c0.8,0.6,1.6,1.2,2.5,1.6c1,0.4,2.5-0.6,4.2-1.7
			c2-1.3,4.2-2.7,6.7-2.4c1.8,0.3,3.3,1.4,4.7,2.4c0.6,0.4,1.1,0.8,1.6,1.2c1.2,0.8,2.7,0.8,3.9,0c0.6-0.3,1.1-0.7,1.7-1.2
			c1.4-1,2.9-2.1,4.7-2.4c2.6-0.4,4.8,1.3,6.9,2.8l0.1,0.1c0.7,0.5,2.6,1.8,4,1.2c0.8-0.3,1.6-0.9,2.5-1.6c1-0.7,2-1.5,3.2-2
			c2.7-1.1,5.2,0.5,7.4,1.9l-1.9,2.9c-1.6-1.1-3.2-2.1-4.2-1.7c-0.8,0.3-1.6,0.9-2.4,1.6c-1,0.7-2,1.5-3.2,2
			c-2.1,0.9-4.7,0.3-7.3-1.6l-0.1-0.1c-1.6-1.2-3.2-2.3-4.3-2.2c-0.9,0.1-2,0.9-3.1,1.8c-0.6,0.4-1.2,0.9-1.9,1.3
			c-2.3,1.4-5.2,1.4-7.5,0c-0.7-0.4-1.3-0.9-1.9-1.3c-1.1-0.8-2.2-1.6-3.1-1.8c-1.2-0.2-2.8,0.9-4.4,1.9c-2.2,1.4-4.7,3-7.4,1.9
			c-1.2-0.5-2.2-1.3-3.2-2c-0.9-0.6-1.7-1.3-2.5-1.6c-1.4-0.6-3.3,0.6-4,1.2l-0.1,0.1C782.9,160.7,780.8,162.2,778.6,162.2z"/>
	</g>
	<path class="st1" d="M1092.7,199.9h4.3v3.4h-4.3V199.9z M1101.3,199.9h4.3v3.4h-4.3V199.9z M1109.8,199.9h4.3v3.4h-4.3V199.9z
		 M1118.3,199.9h4.3v3.4h-4.3V199.9z M1126.8,199.9h4.3v3.4h-4.3V199.9z"/>
	<g>
		<rect x="1131.1" y="199.9" class="st1" width="50.9" height="3.4"/>
	</g>
	<g>
		<path class="st1" d="M1190.1,192c5.4,0,9.8,4.4,9.8,9.8s-4.4,9.8-9.8,9.8s-9.8-4.4-9.8-9.8S1184.7,192,1190.1,192z M1190.1,208.2
			c3.5,0,6.4-2.9,6.4-6.4c0-3.5-2.9-6.4-6.4-6.4c-3.5,0-6.4,2.9-6.4,6.4C1183.7,205.3,1186.6,208.2,1190.1,208.2z"/>
	</g>
	<g>
		<g>
			<g>
				<g>
					<rect x="750.7" y="25.5" class="st1" width="4" height="4.9"/>
				</g>
				<g>
					<rect x="750.7" y="38.7" class="st1" width="4" height="4.9"/>
				</g>
				<g>
					<rect x="757" y="32.6" class="st1" width="4.3" height="3.9"/>
				</g>
				<g>
					<rect x="744" y="32.6" class="st1" width="4.3" height="3.9"/>
				</g>
			</g>
			<path class="st1" d="M780.1,55.3l7.6-4.3l-27.5-8.1l8.5,26.3l4.5-7.3l9.9,9.5l7-6.7L780.1,55.3z M772.5,57.3l-3,4.8l-4.8-14.8
				l15.5,4.6l-5.1,2.9l10.5,10.1l-2.7,2.6L772.5,57.3z"/>
		</g>
		<g>
			<g>
				<path class="st1" d="M717.2,67.4c0,2.3-1.9,4.2-4.2,4.2c-2.3,0-4.2-1.9-4.2-4.2c0-2.3,1.9-4.2,4.2-4.2
					C715.3,63.2,717.2,65,717.2,67.4z"/>
			</g>
			<g>
				<path class="st1" d="M736,67.4c0,2.3-1.9,4.2-4.2,4.2c-2.3,0-4.2-1.9-4.2-4.2c0-2.3,1.9-4.2,4.2-4.2C734.2,63.2,736,65,736,67.4
					z"/>
			</g>
			<g>
				<path class="st1" d="M698.3,67.4c0,2.3-1.9,4.2-4.2,4.2s-4.2-1.9-4.2-4.2c0-2.3,1.9-4.2,4.2-4.2S698.3,65,698.3,67.4z"/>
			</g>
		</g>
		<rect x="621.1" y="53.7" class="st4" width="126.9" height="110.1"/>
		<line class="st4" x1="638" y1="80.4" x2="746.4" y2="80.4"/>
		<g>
			<line class="st5" x1="693.2" y1="101.6" x2="675.9" y2="137.2"/>
			<polyline class="st5" points="705.3,101.6 729.3,119.4 705.3,137.3 			"/>
			<polyline class="st5" points="663.7,137.3 639.8,119.4 663.7,101.6 			"/>
		</g>
		<polygon class="st6" points="714.6,51 714.6,51.4 714.1,51.5 718.6,51.5 718.6,51 		"/>
		<path class="st6" d="M696.3,51h-4l0,0.5h4L696.3,51C696.3,51,696.3,51,696.3,51z"/>
		<path class="st1" d="M728.8,45.5c-0.4-1.5-1-2.9-1.8-4.3l-0.3-0.5l5.9-5.9l-9.3-9.3l-5.9,5.9l-0.5-0.3c-1.4-0.7-2.8-1.3-4.3-1.8
			l-0.5-0.2v-8.3h-13.2v8.3l-0.5,0.2c-1.5,0.5-2.9,1-4.3,1.8l-0.5,0.3l-5.9-5.9l-9.3,9.3l5.9,5.9l-0.3,0.5c-0.7,1.4-1.3,2.8-1.8,4.3
			l-0.2,0.6h-8.3v6.1h3.4v-2.7h7.6l0.3-1.3c0.5-2.4,1.5-4.7,2.8-6.8l0.7-1.2l-5.4-5.4l4.5-4.5l5.4,5.4l1.2-0.7
			c2.1-1.3,4.4-2.3,6.8-2.8l1.3-0.3v-7.6h6.3v7.6l1.3,0.3c2.4,0.5,4.7,1.5,6.8,2.8l1.2,0.7l5.4-5.4l4.5,4.5l-5.4,5.4l0.7,1.2
			c1.3,2.1,2.3,4.4,2.8,6.8l0.3,1.3h7.6v2.7h3.4V46h-8.3L728.8,45.5z"/>
		<path class="st1" d="M718.6,50.8c0-0.2-0.1-0.5-0.1-0.7c0-0.2-0.1-0.4-0.1-0.6c-0.1-0.2-0.1-0.5-0.2-0.7c-0.1-0.2-0.1-0.4-0.2-0.6
			c-0.1-0.2-0.2-0.5-0.3-0.7c-0.1-0.2-0.1-0.3-0.2-0.5c-0.1-0.2-0.2-0.4-0.3-0.7c-0.1-0.2-0.2-0.3-0.2-0.5c-0.1-0.2-0.3-0.4-0.4-0.6
			c-0.1-0.1-0.2-0.3-0.3-0.4c-0.1-0.2-0.3-0.4-0.4-0.6c-0.1-0.1-0.2-0.3-0.3-0.4c-0.2-0.2-0.3-0.4-0.5-0.6c-0.1-0.1-0.2-0.3-0.3-0.4
			c-0.2-0.2-0.4-0.3-0.6-0.5c-0.1-0.1-0.2-0.2-0.4-0.3c-0.2-0.2-0.4-0.3-0.6-0.5c-0.1-0.1-0.3-0.2-0.4-0.3c-0.2-0.1-0.4-0.3-0.7-0.4
			c-0.1-0.1-0.3-0.2-0.4-0.3c-0.2-0.1-0.5-0.2-0.7-0.3c-0.2-0.1-0.3-0.2-0.5-0.2c-0.2-0.1-0.5-0.2-0.7-0.3c-0.2-0.1-0.3-0.1-0.5-0.2
			c-0.3-0.1-0.5-0.1-0.8-0.2c-0.2,0-0.3-0.1-0.5-0.1c-0.3-0.1-0.6-0.1-0.9-0.1c-0.1,0-0.3,0-0.4-0.1c-0.4,0-0.9-0.1-1.3-0.1
			c-0.5,0-0.9,0-1.3,0.1c-0.1,0-0.3,0-0.4,0.1c-0.3,0-0.6,0.1-0.9,0.1c-0.2,0-0.3,0.1-0.5,0.1c-0.3,0.1-0.5,0.1-0.8,0.2
			c-0.2,0.1-0.3,0.1-0.5,0.2c-0.2,0.1-0.5,0.2-0.7,0.3c-0.2,0.1-0.3,0.1-0.5,0.2c-0.2,0.1-0.5,0.2-0.7,0.3c-0.1,0.1-0.3,0.2-0.4,0.3
			c-0.2,0.1-0.4,0.3-0.7,0.4c-0.1,0.1-0.3,0.2-0.4,0.3c-0.2,0.1-0.4,0.3-0.6,0.4c-0.1,0.1-0.3,0.2-0.4,0.3c-0.2,0.2-0.4,0.3-0.6,0.5
			c-0.1,0.1-0.2,0.2-0.3,0.4c-0.2,0.2-0.3,0.4-0.5,0.6c-0.1,0.1-0.2,0.3-0.3,0.4c-0.2,0.2-0.3,0.4-0.4,0.6c-0.1,0.1-0.2,0.3-0.3,0.5
			c-0.1,0.2-0.3,0.4-0.4,0.6c-0.1,0.2-0.2,0.3-0.2,0.5c-0.1,0.2-0.2,0.4-0.3,0.7c-0.1,0.2-0.1,0.3-0.2,0.5c-0.1,0.2-0.2,0.4-0.2,0.7
			c-0.1,0.2-0.1,0.4-0.2,0.6c-0.1,0.2-0.1,0.5-0.2,0.7c0,0.2-0.1,0.4-0.1,0.6c0,0.2-0.1,0.5-0.1,0.7c0,0.2,0,0.4,0,0.6
			c0,0.2,0,0.4,0,0.6h4c0-0.1,0-0.2,0-0.4c0-0.2,0-0.3,0-0.5c0-0.2,0-0.3,0.1-0.5c0-0.2,0-0.3,0.1-0.5c0-0.1,0.1-0.3,0.1-0.4
			c0-0.1,0.1-0.3,0.1-0.4c0-0.1,0.1-0.3,0.2-0.4c0.1-0.1,0.1-0.3,0.2-0.4c0.1-0.1,0.1-0.3,0.2-0.4c0.1-0.1,0.1-0.3,0.2-0.4
			c0.1-0.1,0.2-0.3,0.2-0.4c0.1-0.1,0.1-0.2,0.2-0.4c0.1-0.1,0.2-0.2,0.3-0.4c0.1-0.1,0.2-0.2,0.3-0.3c0.1-0.1,0.2-0.2,0.3-0.3
			c0.1-0.1,0.2-0.2,0.3-0.3c0.1-0.1,0.2-0.2,0.3-0.3c0.1-0.1,0.2-0.2,0.3-0.3c0.1-0.1,0.2-0.2,0.4-0.3c0.1-0.1,0.2-0.2,0.3-0.2
			c0.1-0.1,0.3-0.2,0.4-0.2c0.1-0.1,0.2-0.1,0.4-0.2c0.1-0.1,0.3-0.1,0.4-0.2c0.1-0.1,0.2-0.1,0.4-0.2c0.2-0.1,0.3-0.1,0.5-0.2
			c0.1,0,0.3-0.1,0.4-0.1c0.2-0.1,0.3-0.1,0.5-0.1c0.1,0,0.2-0.1,0.4-0.1c0.2,0,0.4-0.1,0.6-0.1c0.1,0,0.2,0,0.3,0
			c0.3,0,0.6,0,0.9,0c0.3,0,0.6,0,0.9,0c0.1,0,0.2,0,0.3,0c0.2,0,0.4,0.1,0.6,0.1c0.1,0,0.2,0.1,0.4,0.1c0.2,0,0.3,0.1,0.5,0.1
			c0.1,0,0.3,0.1,0.4,0.1c0.2,0.1,0.3,0.1,0.5,0.2c0.1,0.1,0.2,0.1,0.4,0.2c0.1,0.1,0.3,0.1,0.4,0.2c0.1,0.1,0.2,0.1,0.4,0.2
			c0.1,0.1,0.3,0.2,0.4,0.2c0.1,0.1,0.2,0.2,0.3,0.2c0.1,0.1,0.3,0.2,0.4,0.3c0.1,0.1,0.2,0.2,0.3,0.3c0.1,0.1,0.2,0.2,0.3,0.3
			c0.1,0.1,0.2,0.2,0.3,0.3c0.1,0.1,0.2,0.2,0.3,0.3c0.1,0.1,0.2,0.2,0.3,0.3c0.1,0.1,0.2,0.2,0.3,0.4c0.1,0.1,0.2,0.2,0.2,0.4
			c0.1,0.1,0.2,0.3,0.2,0.4c0.1,0.1,0.1,0.3,0.2,0.4c0.1,0.1,0.1,0.3,0.2,0.4c0.1,0.1,0.1,0.3,0.2,0.4c0.1,0.1,0.1,0.3,0.2,0.4
			c0,0.1,0.1,0.3,0.1,0.4c0,0.1,0.1,0.3,0.1,0.4c0,0.1,0.1,0.3,0.1,0.5c0,0.1,0.1,0.3,0.1,0.5c0,0.2,0,0.3,0,0.5c0,0.1,0,0.2,0,0.4
			h4c0-0.2,0-0.4,0-0.6C718.6,51.2,718.6,51,718.6,50.8z"/>
	</g>
	<g>
		<line class="st7" x1="563.4" y1="226.3" x2="617.5" y2="226.3"/>
		<g>
			<path class="st6" d="M577.8,185.6c7.7,0,13.6,5.6,13.6,14.9s-5.8,14.9-13.5,14.9c-7.7,0-13.6-5.6-13.6-14.9
				S570.1,185.6,577.8,185.6z M577.8,210.2c4.4,0,7.3-3.8,7.3-9.7s-2.9-9.7-7.4-9.7c-4.4,0-7.3,3.8-7.3,9.7S573.4,210.2,577.8,210.2
				z"/>
			<path class="st6" d="M595.2,212.3c-0.5-13.3,15.4-12.3,15.4-18.1c0-1.9-1.4-3.5-4.9-3.5c-2.7,0-5.5,1.4-7.6,3.1l-3.4-3.8
				c2.9-2.5,7.2-4.3,11.4-4.3c6.9,0,10.4,3.9,10.4,8.3c0,10.1-15.3,8.7-15.4,16.1H616v4.9h-20.7L595.2,212.3z"/>
		</g>
	</g>
	<g>
		<path class="st1" d="M991.7,337c0.1,0,0.2,0,0.3,0c1.5,0,2.9-0.5,4-1.5c1.2-1.1,1.9-2.5,2-4.1v0c0.2-3.3-2.4-6.1-5.7-6.3
			c-1.6-0.1-3.1,0.5-4.3,1.5c-1.2,1.1-1.9,2.5-2,4.1c-0.1,1.6,0.5,3.1,1.5,4.3C988.6,336.2,990.1,336.9,991.7,337z M990.6,329.5
			c0.4-0.4,0.9-0.5,1.4-0.5c0,0,0.1,0,0.1,0c1.2,0.1,2.1,1.1,2,2.3c0,0.6-0.3,1.1-0.7,1.5c-0.4,0.4-1,0.6-1.6,0.5
			c-0.6,0-1.1-0.3-1.5-0.7c-0.4-0.4-0.6-1-0.6-1.6C989.9,330.4,990.2,329.9,990.6,329.5z"/>
		<path class="st1" d="M999.3,261.5l3.5,1.5c2.9-6.9,7.8-12.9,14-17.2l-2.2-3.1C1007.8,247.4,1002.5,253.9,999.3,261.5z"/>
		<path class="st1" d="M996,278.1h3.8c0-3.8,0.6-7.6,1.6-11.2l-3.7-1.1C996.6,269.8,996,273.9,996,278.1z"/>
		<path class="st1" d="M1083.2,278.1h-3.8c0,4.8-0.9,9.4-2.5,13.9l3.6,1.3C1082.3,288.4,1083.2,283.3,1083.2,278.1z"/>
		<rect x="956.1" y="273.5" class="st1" width="19" height="3.8"/>
		<rect x="1105.1" y="273.5" class="st1" width="19" height="3.8"/>
		<rect x="1037.2" y="192.3" class="st1" width="3.8" height="18.9"/>
		<polygon class="st1" points="996.1,229.2 991,224.1 988.3,226.8 993.4,231.9 		"/>
		<polygon class="st1" points="1084.1,321.7 1089.3,326.8 1092,324.1 1086.8,319 		"/>
		<path class="st1" d="M1099.3,249.2h8.5v-13.7h-8.5c-0.5-1.8-1.2-3.5-2.2-5.2l6-6l-9.8-9.7l-6,6c-1.7-0.9-3.4-1.6-5.2-2.1v-8.4
			h-13.8v8.4c-1.8,0.5-3.6,1.2-5.2,2.1l-6-6l-2.4,2.4l-7.3,7.3l2.2,2.2c-3.1-0.5-6.2-0.9-9.4-0.9c-5.7,0-11.3,0.9-16.4,2.6
			c-21.1,6.9-36.5,26.6-36.5,49.8c0,3.6,0.4,7.1,1.1,10.5c-0.7,0.1-1.4,0.1-2.1,0.2l-2.7-7.7l-16.4,5.7l2.7,7.7
			c-4.7,2.8-8.8,6.4-12.1,10.7l-7.4-3.5l-2.4,5h-0.1l-5.1,10.5l7.3,3.5c-1.3,5.2-1.6,10.7-0.9,16.1l-1.7,0.6h0.1l-6.1,2.1l5.8,16.2
			l7.7-2.7c2.8,4.6,6.5,8.7,10.8,12l-3.5,7.3l15.7,7.5l3.5-7.3c5.3,1.3,10.8,1.6,16.2,0.9l2.7,7.7l16.4-5.7l-2.7-7.7
			c1.2-0.7,2.4-1.5,3.5-2.3v10c0,5.8,4.8,10.6,10.7,10.6h0.7c0,1.3,0,2.5,0,2.7c0,3.6,2.9,7.6,6.8,7.6h8.4c3.9,0,6.8-4,6.8-7.6
			c0-0.3,0-1.4,0-2.7h0.7c5.9,0,10.7-4.7,10.7-10.6v-22.5c2.8-2.3,4.6-5.8,4.6-9.7v-20c16-9.4,25.9-26.6,25.9-45
			c0-3.2-0.3-6.3-0.9-9.3l1.3,1.2l9.8-9.7l-6-6C1098.1,252.7,1098.8,251,1099.3,249.2z M1011,365.1l-1.4,0.8l2.5,7.1l-9.2,3.2
			l-2.5-7.1l-1.6,0.3c-5.9,1-12,0.7-17.7-1l-1.6-0.5l-3.3,6.8l-8.8-4.2l3.3-6.8l-1.3-0.9c-4.9-3.4-8.9-7.9-11.8-13.1l-0.8-1.4
			l-7.2,2.5l-3.2-9.1l7.2-2.5l-0.3-1.6c0-0.1,0-0.2-0.1-0.4h-0.1c-0.9-5.7-0.6-11.6,1-17.1l0.5-1.5l-6.8-3.2l4.2-8.7l6.8,3.2
			l0.9-1.3c0.5-0.7,1-1.4,1.5-2h0.2c3.2-3.9,7.2-7.2,11.6-9.7l1.4-0.8l-2.5-7.1l9.2-3.2l2.5,7.1l1.6-0.3c1.3-0.2,2.6-0.4,4-0.5
			c0.7,2.3,1.5,4.6,2.5,6.8c-5.9,0.1-11.8,1.7-16.9,4.9l-1.9,1.2l1.3,1.5l14.9,16.5l1.1-0.2c1.4-0.3,2.9-0.2,4.3,0.2l1.1,0.3
			l8.2-7.3c1.6,1.5,3.3,2.9,5.1,4.2l-8.9,7.9l0.2,1.1c0.3,1.4,0.2,2.9-0.2,4.3l-0.3,1l2.4,2.7l13.8,15.3l0.7-0.9
			c0.3,0.4,0.7,0.7,1.1,1v7.7C1015.7,362.2,1013.4,363.8,1011,365.1z M978.9,306.1c4.5-2.3,9.6-3.4,14.7-3.1
			c0.7,1.3,1.4,2.5,2.2,3.7c1.6,2.4,3.4,4.7,5.4,6.8l-6.5,5.8c-1.3-0.3-2.7-0.4-4.1-0.2l-11.2-12.3L978.9,306.1z M1013.2,343.9
			l-5.9-6.5l-3.3-3.6c0.3-1.3,0.4-2.7,0.2-4.1l8.1-7.2c0.3,0.2,0.6,0.4,0.9,0.6v14.3v5.7C1013.1,343.4,1013.2,343.6,1013.2,343.9z
			 M1058.7,370.7h-37.1v-4.4h37.1V370.7z M1047.3,388.6c0,1.8-1.5,3.8-2.9,3.8h-8.4c-1.4,0-2.9-2-2.9-3.8c0-0.2,0-1.3,0-2.7h14.2
			C1047.2,387.3,1047.3,388.4,1047.3,388.6z M1058.7,375.3c0,3.7-3.1,6.8-6.8,6.8h-23.4c-3.8,0-6.8-3-6.8-6.8v-0.8h37.1V375.3z
			 M1058.7,354.9v7.5h-37.1v-7.5c0.1,0,0.2,0,0.2,0.1c0.1,0,0.3,0.1,0.4,0.1c0.2,0.1,0.5,0.1,0.7,0.2c0.1,0,0.3,0.1,0.4,0.1
			c0.3,0,0.5,0.1,0.8,0.1c0.1,0,0.3,0,0.4,0c0.4,0,0.8,0.1,1.2,0.1h28.6c0.4,0,0.8,0,1.2-0.1c0.1,0,0.3,0,0.4,0
			c0.3,0,0.5-0.1,0.8-0.1c0.1,0,0.3-0.1,0.4-0.1c0.2-0.1,0.5-0.1,0.7-0.2c0.1,0,0.3-0.1,0.4-0.1C1058.5,355,1058.6,355,1058.7,354.9
			z M1064.2,320.4l-1,0.5v22.2c0,3-1.5,5.6-3.8,7.2c-0.3,0.2-0.7,0.4-1,0.6c-0.1,0-0.1,0.1-0.2,0.1c-0.4,0.2-0.7,0.3-1.1,0.4
			c0,0,0,0,0,0c-0.4,0.1-0.8,0.2-1.2,0.3c-0.1,0-0.2,0-0.3,0c-0.4,0.1-0.8,0.1-1.2,0.1h-28.6c-0.4,0-0.8,0-1.2-0.1
			c-0.1,0-0.2,0-0.3,0c-0.4-0.1-0.8-0.1-1.2-0.3c0,0,0,0,0,0c-0.4-0.1-0.7-0.3-1.1-0.4c-0.1,0-0.1-0.1-0.2-0.1
			c-0.4-0.2-0.7-0.4-1-0.6c-2.3-1.6-3.8-4.2-3.8-7.2v-5.7v-16.5l-1-0.5c-6.2-3.5-11.4-8.2-15.5-13.7c-6-8.2-9.5-18.2-9.5-28.6
			c0-21.1,13.6-39,32.6-45.7c5.1-1.8,10.7-2.8,16.4-2.8c5.1,0,10,0.8,14.6,2.2c20,6.2,34.5,24.6,34.5,46.4
			C1089.2,295.5,1079.6,311.7,1064.2,320.4z M1083.1,247.6c-3.6-5-8.2-9.4-13.3-12.9c1.6-1.1,3.5-1.8,5.5-1.8c5.2,0,9.5,4.2,9.5,9.4
			C1084.8,244.3,1084.2,246.1,1083.1,247.6z M1097.7,260.3l-4.3,4.3l-3.1-3.1c-1.3-3.7-2.9-7.3-4.9-10.5c2.1-2.4,3.2-5.4,3.2-8.6
			c0-7.3-6-13.2-13.3-13.2c-3.3,0-6.5,1.2-9,3.4c-3-1.7-6.2-3.1-9.5-4.2l-2.2-2.1l-1.9-1.9l1.9-1.9l2.4-2.4l5.5,5.4l1.3-0.8
			c2.1-1.3,4.4-2.3,6.8-2.8l1.5-0.3v-7.6h6.1v7.6l1.5,0.3c2.4,0.5,4.7,1.5,6.8,2.8l1.3,0.8l5.5-5.4l4.3,4.3l-5.5,5.4l0.8,1.3
			c1.3,2.1,2.3,4.4,2.8,6.8l0.3,1.5h7.7v6.1h-7.7l-0.3,1.5c-0.5,2.4-1.5,4.7-2.8,6.8l-0.8,1.3L1097.7,260.3z"/>
		<path class="st1" d="M993.8,339.2c-1.4,0.3-2.9,0.2-4.3-0.2l-1.1-0.3l-18.1,16.1l1.8,1.4c1.9,1.5,3.9,2.7,6,3.7
			c4.5,2.1,9.2,3.2,14,3.2c6,0,11.9-1.6,17.1-4.9l1.9-1.2L994.9,339L993.8,339.2z M979.7,356.5c-1.2-0.6-2.3-1.2-3.5-2l13.1-11.6
			c1.3,0.3,2.7,0.4,4.1,0.2l11.7,12.9C997.2,360.1,987.9,360.3,979.7,356.5z"/>
		<path class="st1" d="M984,333.9l-0.2-1.1c-0.3-1.4-0.2-2.9,0.2-4.3l0.3-1l-16.3-17.9l-1.4,1.8c-1.5,1.9-2.7,3.9-3.8,6
			c-3.1,6.4-3.9,13.4-2.5,20.1c0.8,3.7,2.2,7.3,4.3,10.7l1.2,1.9l14.2-12.6L984,333.9z M966.8,344.1c-1.1-2.1-1.9-4.4-2.5-6.7
			c-1.4-6.1-0.8-12.6,2.1-18.5c0.6-1.2,1.2-2.3,2-3.4l11.7,12.9c-0.3,1.3-0.4,2.7-0.2,4.1l-5.6,4.9L966.8,344.1z"/>
	</g>
</g>
</svg>