<?xml version="1.0" standalone="no"?>
<!DOCTYPE svg PUBLIC "-//W3C//DTD SVG 20010904//EN"
 "http://www.w3.org/TR/2001/REC-SVG-20010904/DTD/svg10.dtd">
<svg version="1.0" xmlns="http://www.w3.org/2000/svg"
 width="640.000000pt" height="640.000000pt" viewBox="0 0 640.000000 640.000000"
 preserveAspectRatio="xMidYMid meet">
<metadata>
Created by potrace 1.11, written by Peter Selinger 2001-2013
</metadata>
<g transform="translate(0.000000,640.000000) scale(0.100000,-0.100000)"
fill="#000000" stroke="none">
<path d="M3130 6196 c-25 -7 -268 -93 -540 -190 -272 -98 -711 -254 -975 -348
-264 -93 -488 -177 -498 -186 -46 -41 -47 -50 -47 -455 0 -418 8 -542 47 -716
72 -326 210 -580 442 -811 257 -256 536 -398 916 -467 73 -13 203 -17 695 -23
534 -6 613 -9 670 -24 150 -41 279 -125 377 -246 67 -83 123 -191 123 -238 0
-44 -35 -80 -384 -387 -138 -121 -353 -313 -479 -428 -127 -114 -240 -210
-253 -213 -13 -4 -35 -3 -49 0 -13 3 -161 129 -327 279 -167 150 -409 365
-538 479 -129 113 -245 221 -257 240 -36 54 -43 85 -43 185 0 91 -1 96 -27
120 -16 13 -71 44 -123 67 -216 97 -380 213 -574 407 -144 144 -166 158 -199
121 -15 -17 -17 -75 -17 -635 0 -540 2 -622 16 -656 13 -32 101 -116 457 -433
243 -216 696 -620 1007 -898 311 -278 576 -513 590 -523 34 -24 90 -22 126 6
16 12 284 249 594 527 311 278 759 678 995 889 290 258 438 396 454 424 22 41
23 46 17 227 -4 143 -11 213 -30 306 -142 679 -642 1173 -1332 1315 -104 22
-140 23 -724 29 -663 8 -667 8 -793 64 -175 77 -337 253 -396 432 -28 83 -45
194 -37 237 12 65 34 80 253 173 115 48 357 152 538 231 194 85 349 146 376
150 38 4 60 -1 130 -30 218 -91 997 -428 1020 -441 52 -31 57 -59 55 -311 -2
-165 1 -239 10 -262 11 -27 30 -41 123 -88 262 -131 474 -293 646 -495 83 -96
113 -111 149 -72 15 17 16 93 15 943 -1 1010 2 971 -59 1008 -18 10 -157 63
-309 116 -152 53 -596 211 -986 350 -391 139 -731 256 -755 259 -25 3 -65 0
-90 -8z"/>
</g>
</svg>
