<svg id="Capa_1" data-name="Capa 1" xmlns="http://www.w3.org/2000/svg" viewBox="0 0 425.15 600"><path d="M532.13,191c0,29.19,0,58.37-.08,87.56,0,3.26,1.59,7.48-2.64,9.4-5.07,2.3-7-2.28-9.44-5.13-20.28-24-44.48-42.85-73.3-55.5-5.52-2.42-8-5.53-7.74-11.9.53-12.8-.38-25.67.34-38.45.47-8.51-2.81-12.4-10.49-15.59-33-13.7-65.75-27.91-98.41-42.34-7.49-3.31-13.92-3.12-21.32.14-32.68,14.41-65.44,28.69-98.46,42.29-8,3.31-10.38,7.68-9.92,15.88,2.06,36.9,32.58,67.81,69.59,68.71,30.49.73,61,.21,91.52.23,100.84.07,176.43,80.33,170.51,180.74-.33,5.61-2.79,8.89-6.49,12.19q-98.94,88.27-197.73,176.7c-6.46,5.81-10.73,5-16.77-.37Q212.6,527,113.5,438.89c-4.37-3.88-5.94-7.94-5.9-13.72.24-37.14.09-74.28.19-111.43,0-3.77-1.76-8.82,2.89-10.69,5.5-2.22,7.43,3.55,10.17,6.52,20.06,21.74,43.32,39.07,70.73,50.26,7.63,3.11,10.36,7.45,9.08,14.93-2.1,12.18,3.09,20.32,12.26,28.25,33.1,28.62,65.64,57.88,98,87.29,6.54,5.93,10.82,6.44,17.62.25q49.49-45.09,99.87-89.16c7.06-6.15,7.78-11.48,3.88-19.17-14.12-27.84-36.8-42.21-67.83-42.71-29.62-.47-59.25.1-88.87-.16-96.23-.83-167.73-73-167.92-169.32,0-21.23.45-42.47-.22-63.67-.27-8.86,2.2-13.28,10.91-16.32q96.69-33.84,193-68.67c6.27-2.25,11.69-1.74,17.85.47Q425.09,56.19,521.1,89.92c8.39,2.94,11.5,7,11.28,16.14C531.7,134.35,532.13,162.66,532.13,191Z" transform="translate(-107.46 -19.91)" style="fill:#65c9ff"/></svg>